HIERARCHY
ROOT Hips
{
	OFFSET 0.000000 88.474243 0.000000
	CHANNELS 6 Xposition Yposition Zposition Xrotation Yrotation Zrotation 
	JOINT Spine
	{
		OFFSET 0.005100 8.711998 -0.691000
		CHANNELS 3 Xrotation Yrotation Zrotation
		JOINT Spine1
		{
			OFFSET -0.000967 6.170934 -1.044000
			CHANNELS 3 Xrotation Yrotation Zrotation
			JOINT Spine1_split
			{
				OFFSET -0.000967 6.170934 -1.044000
				CHANNELS 3 Xrotation Yrotation Zrotation
				JOINT Spine2
				{
					OFFSET -0.000967 6.170934 -1.044000
					CHANNELS 3 Xrotation Yrotation Zrotation
					JOINT Neck
					{
						OFFSET 0.016300 11.420799 -0.263300
						CHANNELS 3 Xrotation Yrotation Zrotation
						JOINT Head
						{
							OFFSET -0.019200 9.262405 2.362500
							CHANNELS 3 Xrotation Yrotation Zrotation
							JOINT HeadTop_End
							{
								OFFSET -0.003300 20.641708 4.374200
								CHANNELS 3 Xrotation Yrotation Zrotation
								End Site
								{
									OFFSET 0.000000 0.000000 0.000000
								}
							}
							JOINT RightEye
							{
								OFFSET -4.115500 7.286606 7.915800
								CHANNELS 3 Xrotation Yrotation Zrotation
								End Site
								{
									OFFSET 0.000000 0.000000 0.000000
								}
							}
							JOINT LeftEye
							{
								OFFSET 4.109900 7.286499 7.915800
								CHANNELS 3 Xrotation Yrotation Zrotation
								End Site
								{
									OFFSET 0.000000 0.000000 0.000000
								}
							}
						}
					}
					JOINT LeftShoulder
					{
						OFFSET 2.808450 3.366100 -0.172850
						CHANNELS 3 Xrotation Yrotation Zrotation
						JOINT LeftShoulder_split
						{
							OFFSET 2.808450 3.366100 -0.172850
							CHANNELS 3 Xrotation Yrotation Zrotation
							JOINT LeftArm
							{
								OFFSET 10.664888 -0.183372 -2.440700
								CHANNELS 3 Xrotation Yrotation Zrotation
								JOINT LeftForeArm
								{
									OFFSET 27.459126 0.000000 0.000000
									CHANNELS 3 Xrotation Yrotation Zrotation
									JOINT LeftHand
									{
										OFFSET 21.306858 0.000000 0.000000
										CHANNELS 3 Xrotation Yrotation Zrotation
										JOINT LeftHandMiddle1
										{
											OFFSET 9.885994 0.000000 0.000000
											CHANNELS 3 Xrotation Yrotation Zrotation
											JOINT LeftHandMiddle2
											{
												OFFSET 2.657257 0.000000 0.000000
												CHANNELS 3 Xrotation Yrotation Zrotation
												JOINT LeftHandMiddle3
												{
													OFFSET 2.553986 0.000000 0.000000
													CHANNELS 3 Xrotation Yrotation Zrotation
													JOINT LeftHandMiddle4
													{
														OFFSET 2.835144 0.000000 0.000000
														CHANNELS 3 Xrotation Yrotation Zrotation
														End Site
														{
															OFFSET 0.000000 0.000000 0.000000
														}
													}
												}
											}
										}
										JOINT LeftHandThumb1
										{
											OFFSET 3.169678 -1.462761 2.479728
											CHANNELS 3 Xrotation Yrotation Zrotation
											JOINT LeftHandThumb2
											{
												OFFSET 2.886429 -1.666481 1.666480
												CHANNELS 3 Xrotation Yrotation Zrotation
												JOINT LeftHandThumb3
												{
													OFFSET 2.508606 -1.448341 1.448345
													CHANNELS 3 Xrotation Yrotation Zrotation
													JOINT LeftHandThumb4
													{
														OFFSET 1.840363 -1.062538 1.062534
														CHANNELS 3 Xrotation Yrotation Zrotation
														End Site
														{
															OFFSET 0.000000 0.000000 0.000000
														}
													}
												}
											}
										}
										JOINT LeftHandIndex1
										{
											OFFSET 9.671494 -0.187355 2.378996
											CHANNELS 3 Xrotation Yrotation Zrotation
											JOINT LeftHandIndex2
											{
												OFFSET 2.763512 0.000000 0.000000
												CHANNELS 3 Xrotation Yrotation Zrotation
												JOINT LeftHandIndex3
												{
													OFFSET 2.609634 0.000000 0.000000
													CHANNELS 3 Xrotation Yrotation Zrotation
													JOINT LeftHandIndex4
													{
														OFFSET 2.328438 0.000000 0.000000
														CHANNELS 3 Xrotation Yrotation Zrotation
														End Site
														{
															OFFSET 0.000000 0.000000 0.000000
														}
													}
												}
											}
										}
										JOINT LeftHandRing1
										{
											OFFSET 9.403130 0.021294 -1.980828
											CHANNELS 3 Xrotation Yrotation Zrotation
											JOINT LeftHandRing2
											{
												OFFSET 2.465874 0.000000 0.000000
												CHANNELS 3 Xrotation Yrotation Zrotation
												JOINT LeftHandRing3
												{
													OFFSET 2.379852 0.000000 0.000000
													CHANNELS 3 Xrotation Yrotation Zrotation
													JOINT LeftHandRing4
													{
														OFFSET 2.663132 0.000000 0.000000
														CHANNELS 3 Xrotation Yrotation Zrotation
														End Site
														{
															OFFSET 0.000000 0.000000 0.000000
														}
													}
												}
											}
										}
										JOINT LeftHandPinky1
										{
											OFFSET 8.575966 -0.190437 -4.050817
											CHANNELS 3 Xrotation Yrotation Zrotation
											JOINT LeftHandPinky2
											{
												OFFSET 2.646774 0.000000 0.000000
												CHANNELS 3 Xrotation Yrotation Zrotation
												JOINT LeftHandPinky3
												{
													OFFSET 1.606773 0.000000 0.000000
													CHANNELS 3 Xrotation Yrotation Zrotation
													JOINT LeftHandPinky4
													{
														OFFSET 2.007980 0.000000 0.000000
														CHANNELS 3 Xrotation Yrotation Zrotation
														End Site
														{
															OFFSET 0.000000 0.000000 0.000000
														}
													}
												}
											}
										}
									}
								}
							}
						}
					}
					JOINT RightShoulder
					{
						OFFSET -2.790150 3.368752 -0.172200
						CHANNELS 3 Xrotation Yrotation Zrotation
						JOINT RightShoulder_split
						{
							OFFSET -2.790150 3.368752 -0.172200
							CHANNELS 3 Xrotation Yrotation Zrotation
							JOINT RightArm
							{
								OFFSET -10.679335 -0.188484 -2.383900
								CHANNELS 3 Xrotation Yrotation Zrotation
								JOINT RightForeArm
								{
									OFFSET -27.503529 0.000000 0.000000
									CHANNELS 3 Xrotation Yrotation Zrotation
									JOINT RightHand
									{
										OFFSET -21.306808 0.000000 0.000000
										CHANNELS 3 Xrotation Yrotation Zrotation
										JOINT RightHandMiddle1
										{
											OFFSET -9.885529 0.000000 0.000000
											CHANNELS 3 Xrotation Yrotation Zrotation
											JOINT RightHandMiddle2
											{
												OFFSET -2.656517 0.000000 0.000000
												CHANNELS 3 Xrotation Yrotation Zrotation
												JOINT RightHandMiddle3
												{
													OFFSET -2.553825 0.000000 0.000000
													CHANNELS 3 Xrotation Yrotation Zrotation
													JOINT RightHandMiddle4
													{
														OFFSET -2.835022 0.000000 0.000000
														CHANNELS 3 Xrotation Yrotation Zrotation
														End Site
														{
															OFFSET 0.000000 0.000000 0.000000
														}
													}
												}
											}
										}
										JOINT RightHandThumb1
										{
											OFFSET -3.169418 -1.461960 2.481918
											CHANNELS 3 Xrotation Yrotation Zrotation
											JOINT RightHandThumb2
											{
												OFFSET -2.887390 -1.667038 1.667035
												CHANNELS 3 Xrotation Yrotation Zrotation
												JOINT RightHandThumb3
												{
													OFFSET -2.508553 -1.448311 1.448312
													CHANNELS 3 Xrotation Yrotation Zrotation
													JOINT RightHandThumb4
													{
														OFFSET -1.838402 -1.061401 1.061401
														CHANNELS 3 Xrotation Yrotation Zrotation
														End Site
														{
															OFFSET 0.000000 0.000000 0.000000
														}
													}
												}
											}
										}
										JOINT RightHandIndex1
										{
											OFFSET -9.673798 -0.186302 2.383026
											CHANNELS 3 Xrotation Yrotation Zrotation
											JOINT RightHandIndex2
											{
												OFFSET -2.761208 0.000000 0.000000
												CHANNELS 3 Xrotation Yrotation Zrotation
												JOINT RightHandIndex3
												{
													OFFSET -2.607552 0.000000 0.000000
													CHANNELS 3 Xrotation Yrotation Zrotation
													JOINT RightHandIndex4
													{
														OFFSET -2.323059 0.000000 0.000000
														CHANNELS 3 Xrotation Yrotation Zrotation
														End Site
														{
															OFFSET 0.000000 0.000000 0.000000
														}
													}
												}
											}
										}
										JOINT RightHandRing1
										{
											OFFSET -9.400520 0.021515 -1.981539
											CHANNELS 3 Xrotation Yrotation Zrotation
											JOINT RightHandRing2
											{
												OFFSET -2.466286 0.000000 0.000000
												CHANNELS 3 Xrotation Yrotation Zrotation
												JOINT RightHandRing3
												{
													OFFSET -2.381020 0.000000 0.000000
													CHANNELS 3 Xrotation Yrotation Zrotation
													JOINT RightHandRing4
													{
														OFFSET -2.665558 0.000000 0.000000
														CHANNELS 3 Xrotation Yrotation Zrotation
														End Site
														{
															OFFSET 0.000000 0.000000 0.000000
														}
													}
												}
											}
										}
										JOINT RightHandPinky1
										{
											OFFSET -8.576805 -0.189667 -4.048449
											CHANNELS 3 Xrotation Yrotation Zrotation
											JOINT RightHandPinky2
											{
												OFFSET -2.646317 0.000000 0.000000
												CHANNELS 3 Xrotation Yrotation Zrotation
												JOINT RightHandPinky3
												{
													OFFSET -1.609322 0.000000 0.000000
													CHANNELS 3 Xrotation Yrotation Zrotation
													JOINT RightHandPinky4
													{
														OFFSET -2.009491 0.000000 0.000000
														CHANNELS 3 Xrotation Yrotation Zrotation
														End Site
														{
															OFFSET 0.000000 0.000000 0.000000
														}
													}
												}
											}
										}
									}
								}
							}
						}
					}
				}
			}
		}
	}
	JOINT LeftUpLeg
	{
		OFFSET 6.857700 -6.739601 0.312100
		CHANNELS 3 Xrotation Yrotation Zrotation
		JOINT LeftLeg
		{
			OFFSET -0.367590 -34.731552 -4.572400
			CHANNELS 3 Xrotation Yrotation Zrotation
			JOINT LeftFoot
			{
				OFFSET 0.367590 -34.656704 -6.067400
				CHANNELS 3 Xrotation Yrotation Zrotation
				JOINT LeftToeBase
				{
					OFFSET -0.556800 -11.119200 8.871500
					CHANNELS 3 Xrotation Yrotation Zrotation
					JOINT LeftToe_End
					{
						OFFSET -0.133500 0.333600 9.201300
						CHANNELS 3 Xrotation Yrotation Zrotation
						End Site
						{
							OFFSET 0.000000 0.000000 0.000000
						}
					}
				}
			}
		}
	}
	JOINT RightUpLeg
	{
		OFFSET -6.876100 -6.733299 0.301000
		CHANNELS 3 Xrotation Yrotation Zrotation
		JOINT RightLeg
		{
			OFFSET 0.347353 -34.795158 -4.515900
			CHANNELS 3 Xrotation Yrotation Zrotation
			JOINT RightFoot
			{
				OFFSET -0.347353 -34.589367 -6.070300
				CHANNELS 3 Xrotation Yrotation Zrotation
				JOINT RightToeBase
				{
					OFFSET 0.591100 -11.123700 8.856300
					CHANNELS 3 Xrotation Yrotation Zrotation
					JOINT RightToe_End
					{
						OFFSET 0.176400 0.322500 9.196700
						CHANNELS 3 Xrotation Yrotation Zrotation
						End Site
						{
							OFFSET 0.000000 0.000000 0.000000
						}
					}
				}
			}
		}
	}
}
MOTION
Frames: 4
Frame Time: 0.016667
-2.393955 88.216629 0.271365 -1.106383 2.490139 -2.268140 3.895509 1.849170 2.596669 2.170929 0.851104 1.732836 0.000000 0.000000 0.000000 2.144826 0.872053 1.741710 6.271358 -0.905104 -1.086603 -14.436216 -1.976668 -7.067213 0.000000 0.000000 -0.000000 0.000000 0.000000 -0.000000 0.000000 0.000000 -0.000000 1.055026 -17.949879 -12.356626 0.000000 0.000000 0.000000 1.417374 -14.582548 -69.182699 0.000006 -1.433132 -0.000010 -38.452541 -2.964778 -4.048000 0.084599 3.693275 -24.814323 1.263376 3.635429 -38.316026 1.328185 3.715815 -39.326959 -0.000000 -0.000001 -0.000000 -1.914718 -0.382944 6.027024 11.177952 24.077759 17.458158 -13.839288 3.491021 9.066289 -0.000001 0.000000 0.000000 0.558822 0.769563 -18.439002 0.477452 2.318406 -23.270598 0.172592 1.412966 -13.927687 0.000001 0.000000 0.000001 -0.342273 3.150662 -29.138140 1.170493 3.514932 -36.826580 0.996252 3.269761 -33.882687 -0.000000 -0.000000 -0.000000 -0.241713 5.727281 -39.285319 0.656478 2.696507 -27.360910 0.614724 2.614335 -26.459796 0.000001 -0.000001 0.000001 1.189321 15.829865 14.770694 0.000000 0.000000 0.000000 10.387333 29.262313 56.631113 -0.000002 8.104418 0.000008 -21.928099 -1.427165 7.846974 -0.024613 -0.876836 2.806444 0.439004 -1.975671 25.052902 0.380385 -1.845169 23.294871 -0.000004 -0.000001 -0.000004 -22.051460 -1.908773 -6.286424 10.808849 -26.306180 -16.473930 -6.220786 -28.576784 -4.964301 0.000004 -0.000002 -0.000001 0.940236 -0.555690 -1.294319 0.339475 -1.747140 21.989692 0.237758 -1.470474 18.367987 -0.000002 -0.000000 0.000003 0.022369 -4.948844 -0.657435 0.603818 -2.295307 29.474209 0.553650 -2.204248 28.196233 -0.000000 -0.000001 -0.000001 -2.381018 -3.982062 -1.738933 0.065284 -0.777917 9.594724 0.747382 -2.532328 32.881617 -0.000002 0.000001 0.000002 -22.113554 12.938875 11.660746 12.818384 -4.570919 4.743585 10.699731 -0.813881 -8.665276 -6.602021 0.000001 0.000001 -0.000000 -0.000000 -0.000000 -11.101239 -9.757030 4.356389 13.467968 -9.850354 -6.181956 -0.443691 -9.838864 1.079866 -8.908559 0.000009 0.000001 0.000000 -0.000001 -0.000000 
-2.350007 88.217072 0.210479 -1.244347 2.213348 -2.328775 3.863095 1.851104 2.573016 2.111767 0.856457 1.682635 0.000000 0.000000 0.000000 2.085645 0.877877 1.691597 6.288194 -0.860119 -1.033443 -14.110215 -1.844209 -6.756870 0.000000 0.000000 0.000001 0.000000 0.000000 0.000001 0.000000 0.000000 0.000001 1.053583 -17.953598 -12.366733 0.000000 0.000000 0.000000 1.515833 -14.213015 -69.243338 -0.000005 -0.996513 -0.000019 -38.427262 -2.895453 -4.085564 0.028051 3.479766 -23.225747 1.107764 3.429713 -35.790888 1.168949 3.512880 -36.801459 -0.000000 -0.000000 -0.000001 -2.207588 -0.416734 6.339853 11.164843 24.022832 17.418562 -14.236862 2.067990 8.588529 0.000003 -0.000001 -0.000000 0.583589 0.576662 -16.325658 0.398619 2.125893 -21.237667 0.126100 1.210222 -11.896766 -0.000001 0.000000 0.000000 -0.356981 2.999266 -27.705037 1.068994 3.375389 -35.137662 0.901690 3.124570 -32.187294 0.000000 0.000002 0.000001 -0.218600 5.637216 -37.925476 0.642793 2.669925 -27.068596 0.601463 2.587547 -26.167503 0.000001 -0.000000 0.000001 1.190126 15.837566 14.765732 0.000000 0.000000 0.000000 10.352650 29.653300 56.781439 0.000000 8.177378 -0.000008 -22.068524 -1.382239 7.864926 0.014857 -0.697732 1.232918 0.381050 -1.846717 23.315786 0.325994 -1.713405 21.543346 0.000001 0.000003 0.000002 -22.333653 -1.741603 -6.330822 11.086650 -26.219918 -16.323848 -6.518671 -27.640186 -4.816460 0.000005 -0.000003 -0.000004 0.960739 -0.438094 -2.660801 0.293044 -1.627494 20.412939 0.198498 -1.346537 16.771039 -0.000002 0.000001 0.000003 -0.046241 -4.871854 -2.132451 0.534504 -2.168164 27.694189 0.487540 -2.076307 26.426144 -0.000001 0.000001 -0.000000 -2.459926 -3.749655 -3.101080 0.045446 -0.649832 8.003260 0.683169 -2.430228 31.398407 0.000001 -0.000002 0.000004 -21.947838 12.936710 11.715136 12.827872 -4.524028 4.751795 10.581985 -0.583521 -8.656814 -6.498018 -0.000015 -0.000001 0.000000 0.000001 0.000000 -10.920062 -9.788975 4.322307 13.324357 -9.834791 -6.092997 -0.387897 -9.522738 1.121761 -8.824657 -0.000009 -0.000001 -0.000000 0.000001 0.000000 
-2.304415 88.220207 0.153092 -1.375565 1.929581 -2.386525 3.828598 1.854224 2.548974 2.049206 0.864140 1.633699 0.000000 0.000000 0.000000 2.023078 0.886066 1.642767 6.305999 -0.816885 -0.981976 -13.784265 -1.714279 -6.459292 0.000000 0.000000 -0.000000 0.000000 0.000000 -0.000000 0.000000 0.000000 -0.000000 1.051608 -17.959583 -12.380773 0.000000 0.000000 0.000000 1.623121 -13.827277 -69.301545 0.000005 -0.548921 0.000020 -38.377265 -2.823675 -4.117415 -0.009565 3.315604 -21.994107 0.982563 3.249322 -33.641892 1.040576 3.334720 -34.652152 -0.000001 -0.000000 -0.000001 -2.446350 -0.442464 6.627077 11.155598 23.980642 17.384744 -14.579618 0.884980 8.178971 0.000001 -0.000000 -0.000002 0.616836 0.436395 -14.668861 0.339577 1.967335 -19.584580 0.093610 1.044186 -10.245099 -0.000000 -0.000001 -0.000001 -0.368253 2.880625 -26.634311 0.995547 3.268719 -33.870252 0.833543 3.013743 -30.914539 -0.000001 0.000001 -0.000000 -0.222198 5.566259 -36.984713 0.611883 2.608614 -26.397250 0.571521 2.525750 -25.496254 0.000001 -0.000000 0.000001 1.191614 15.840457 14.756993 0.000000 0.000000 0.000000 10.339172 30.010745 56.948294 -0.000008 8.238137 -0.000003 -22.178686 -1.401280 7.925075 0.055361 -0.534922 -0.170922 0.329084 -1.721186 21.646343 0.277783 -1.585914 19.868803 -0.000000 0.000001 0.000002 -22.554432 -1.588038 -6.337218 11.356775 -26.208358 -16.191479 -6.796164 -26.785405 -4.686641 0.000001 -0.000003 -0.000004 0.997024 -0.309130 -3.901069 0.250471 -1.508231 18.857398 0.162592 -1.221094 15.168479 -0.000002 -0.000001 -0.000004 -0.106946 -4.807455 -3.446376 0.469634 -2.039914 25.927559 0.425651 -1.946896 24.663173 -0.000002 0.000001 -0.000000 -2.526965 -3.534646 -4.297266 0.029631 -0.525030 6.458862 0.620340 -2.324261 29.883997 -0.000002 0.000001 -0.000000 -21.769317 12.932846 11.776804 12.801320 -4.397883 4.743758 10.477784 -0.423306 -8.650459 -6.395060 -0.000002 -0.000000 -0.000000 -0.000001 -0.000000 -10.732256 -9.825494 4.276892 13.155701 -9.819246 -5.996283 -0.316417 -9.197052 1.173594 -8.740935 -0.000006 0.000000 -0.000000 -0.000002 -0.000000 
-2.256986 88.225723 0.098206 -1.499515 1.638538 -2.440256 3.792314 1.858253 2.524175 1.984146 0.873724 1.585928 0.000000 0.000000 0.000000 1.958021 0.896191 1.595106 6.324776 -0.775105 -0.932223 -13.462808 -1.584135 -6.177191 -0.000000 -0.000000 0.000000 -0.000000 -0.000000 0.000000 -0.000000 -0.000000 0.000000 1.049670 -17.969237 -12.395028 0.000000 0.000000 0.000000 1.736830 -13.421749 -69.360960 0.000002 -0.095039 -0.000010 -38.302618 -2.750661 -4.143156 -0.034483 3.187758 -20.992861 0.875692 3.082942 -31.707097 0.930779 3.170255 -32.717091 -0.000001 0.000000 0.000001 -2.643081 -0.456676 6.883320 11.149982 23.949440 17.354734 -14.878211 -0.115149 7.823285 -0.000002 -0.000001 -0.000001 0.643999 0.325215 -13.325235 0.293565 1.832937 -18.196835 0.070032 0.904104 -8.858488 -0.000000 -0.000000 0.000000 -0.377195 2.783849 -25.793528 0.933042 3.173764 -32.757932 0.775783 2.915250 -29.797735 -0.000000 0.000000 -0.000000 -0.221552 5.510983 -36.239887 0.569333 2.521163 -25.446532 0.530359 2.437653 -24.545673 0.000001 -0.000002 -0.000001 1.193331 15.844299 14.746870 0.000000 0.000000 0.000000 10.349068 30.326122 57.126937 -0.000002 8.287975 0.000005 -22.258477 -1.464323 8.036340 0.095791 -0.388561 -1.419294 0.282873 -1.599922 20.052003 0.235443 -1.463473 18.277354 0.000001 -0.000002 0.000003 -22.727866 -1.432624 -6.321833 11.620704 -26.241339 -16.070429 -7.059700 -25.992906 -4.574497 0.000000 -0.000004 -0.000005 1.033051 -0.182069 -5.039890 0.212727 -1.392844 17.366108 0.130997 -1.097964 13.607439 0.000003 -0.000001 -0.000001 -0.158713 -4.736737 -4.597091 0.410150 -1.912807 24.202813 0.368918 -1.818324 22.936141 -0.000003 -0.000001 -0.000001 -2.585570 -3.334702 -5.336380 0.017583 -0.404867 4.976333 0.560140 -2.216288 28.364264 -0.000002 0.000001 0.000001 -21.582167 12.924743 11.845116 12.745301 -4.179315 4.718272 10.383476 -0.345038 -8.636235 -6.292818 0.000003 -0.000001 -0.000000 -0.000000 -0.000000 -10.540537 -9.866648 4.218213 12.964849 -9.804400 -5.890338 -0.232538 -8.860212 1.232232 -8.655910 0.000002 -0.000000 0.000000 0.000000 -0.000000 
